# xmcd
#
# Track frame offsets:
#	150
#	19045
#	39647
#	55639
#	68040
#	81750
#	95687
#	116692
#	133010
#	142870
#	167065
#	186559
#
# Disc length: 2723
#
# Revision: 1
# Processed by: cddbd v1.5.1PL0 Copyright (c) Steve Scherf et al.
# Submitted via: CDex 1.51
# Normalized: r0:TDELIM( - )
#
DISCID=a20aa10c
DTITLE=Coração Brasileiro - Sempre Presente
DYEAR=1900
DGENRE=Jazz
TTITLE0=Ney Matogrosso - Besame Mucho
TTITLE1=João Bosco - A Felicidade - O Nosso Amor
TTITLE2=Baden Powell - Introdução Ao Poema DosOlhos Da Amada
TTITLE3=Alcides Gerardi - Cabecinha No Ombro
TTITLE4=Cauby Peixoto - Conceição
TTITLE5=Silvio Caldas - Feitio de Oração
TTITLE6=Nara Leão - Corcovado - Insensatez
TTITLE7=Nana Caymmi - Dois Pra Lá, Dois Pra Cá - Ouça
TTITLE8=baden Powell - Se Todos Fossem Iguais a Você
TTITLE9=Leni Andrade - Garota De Ipanema - Rio - Ela é Carioca
TTITLE10=Alceu Maia - Noites Cariocas - Brasileirinho
TTITLE11=Roberto Ribeiro - A Voz Do Morro
EXTD=
EXTT0=
EXTT1=
EXTT2=
EXTT3=
EXTT4=
EXTT5=
EXTT6=
EXTT7=
EXTT8=
EXTT9=
EXTT10=
EXTT11=
PLAYORDER=
